<svg width="316" height="21" fill="none" xmlns="http://www.w3.org/2000/svg"><path opacity=".3" fill="#fff" d="M0 9h316v2H0z"/><path fill="#fff" d="M14 9h248v2H14z"/><path opacity=".3" d="M9.5 19.1A9.52 9.52 0 010 9.54v1.9A9.52 9.52 0 009.5 21c5.25 0 9.5-4.27 9.5-9.55v-1.9a9.52 9.52 0 01-9.5 9.54z" fill="#ABABAB"/><path d="M9.5 19.1c5.25 0 9.5-4.28 9.5-9.55A9.52 9.52 0 009.5 0 9.52 9.52 0 000 9.55a9.52 9.52 0 009.5 9.54z" fill="#fff"/><path d="M9.5 11.45a1.9 1.9 0 100-3.83 1.9 1.9 0 000 3.83z" fill="#ABABAB"/><path opacity=".3" d="M261.5 19.1a9.52 9.52 0 01-9.5-9.55v1.9a9.52 9.52 0 009.5 9.55c5.25 0 9.5-4.27 9.5-9.55v-1.9a9.52 9.52 0 01-9.5 9.54z" fill="#ABABAB"/><path d="M261.5 19.1c5.25 0 9.5-4.28 9.5-9.55A9.52 9.52 0 00261.5 0a9.52 9.52 0 00-9.5 9.55 9.52 9.52 0 009.5 9.54z" fill="#fff"/><path d="M261.5 11.45a1.9 1.9 0 100-3.8 1.9 1.9 0 000 3.8z" fill="#ABABAB"/></svg>