<svg width="46" height="48" fill="none" xmlns="http://www.w3.org/2000/svg"><path fill="#81B3D2" d="M0 0h46v48H0z"/><path d="M25.95 17.14a3.1 3.1 0 013.58 1.18c.67-.23 1.33-.48 2-.7a2.34 2.34 0 01-.85 1.76c.69.17 1.3-.49 1.3-.49-.16 1-1 1.79-1.56 2.03-.23 6.75-3.17 11.21-10.08 11.08h-.44c-.41 0-4.16-.46-4.9-1.89 2.27.2 3.9-.42 4.7-1.18-.97-.3-2.68-.47-2.98-2.95.34.11.56.23 1.19.12-1.2-.85-2.54-1.57-2.46-3.77a1.9 1.9 0 001.34.47c-.7-.24-1.97-3.36-.9-4.95 1.82 1.85 3.74 3.6 7.16 3.77.2-2.29 1.13-3.83 2.9-4.48z" fill="#fff"/></svg>